# xmcd
#
# Track frame offsets: 
#        150
#        12007
#        25347
#        38070
#        50390
#        61467
#        72562
#        83992
#        98302
#        110482
#        123412
#        134350
#        146142
#        158525
#        170190
#        183975
#        197052
#        210330
#
# Disc length: 2969 seconds
#
# Revision: 0
# Processed by: cddbd v1.5.1PL0 Copyright (c) Steve Scherf et al.
# Submitted via: ExactAudioCopy v0.90b4
#
DISCID=f70b9712
DTITLE=Various Artist - Savoy Blues'n'Boogie
DYEAR=2003
DGENRE=Boogie Blues
TTITLE0=Big Jay McNeely and His Blue Jays - Man Eater
TTITLE1=Tommy Brown - Double Faced Deacon
TTITLE2=Gatemouth Moore - Did You Ever Love A Woman
TTITLE3=Little Miss Sharecropper - I Want To Rock
TTITLE4=H Bomb Ferguson - Bookie's Blues
TTITLE5=Sonny Wilson - The Rainy Day Blues
TTITLE6=Helen Humes - Airplane Blues
TTITLE7=Dallas Bartley - You're The Greatest
TTITLE8=Doc Pomus - My Good Pott
TTITLE9=Milton Buggs - Fine Brown Frame
TTITLE10=Tiny Bradshaw and His Orchestra - Take The Hands Off The Clock
TTITLE11=Dallas Bartley and His Band - I Know What It's All About
TTITLE12=Melvin Moore - I'm Still In Love With You
TTITLE13=Billie Wright - Married Woman's Boogie
TTITLE14=Doc Pomus - My New Chick
TTITLE15=Gatemouth Moore - I Ain't Mad At You Pretty Baby
TTITLE16=Tommy Brown - V8 Baby
TTITLE17=Helen Humes - Helen's Advice
EXTD=
EXTT0=
EXTT1=
EXTT2=
EXTT3=
EXTT4=
EXTT5=
EXTT6=
EXTT7=
EXTT8=
EXTT9=
EXTT10=
EXTT11=
EXTT12=
EXTT13=
EXTT14=
EXTT15=
EXTT16=
EXTT17=
PLAYORDER=
